<svg height="50px" xmlns="http://www.w3.org/2000/svg" viewBox="0 0 92 78.18"><defs><style>.cls-1{fill:#ff3100;}</style></defs><title>Layer 2</title><g id="Layer_2" data-name="Layer 2"><g id="Layer_1-2" data-name="Layer 1"><g id="Layer_2-2" data-name="Layer 2"><g id="svg2"><g id="layer1"><path id="path3766-1" class="cls-1" d="M14.35,0A3.82,3.82,0,0,0,11.7,1.1L1.1,11.71A3.72,3.72,0,0,0,1.1,17h0L23.19,39.09,1.1,61.18a3.74,3.74,0,0,0,0,5.3h0l10.6,10.6a3.75,3.75,0,0,0,5.3,0L52.34,41.74a3.75,3.75,0,0,0,0-5.3L17,1.1A3.79,3.79,0,0,0,14.35,0ZM52.91,0a3.82,3.82,0,0,0-2.65,1.1L39.66,11.71a3.74,3.74,0,0,0,0,5.29h0L61.75,39.09,39.66,61.18a3.75,3.75,0,0,0,0,5.3h0l10.6,10.6a3.77,3.77,0,0,0,5.31,0L90.9,41.74a3.74,3.74,0,0,0,0-5.3L55.57,1.1A3.83,3.83,0,0,0,52.91,0Z"/></g></g></g></g></g></svg>