<svg height="50px" xmlns="http://www.w3.org/2000/svg" viewBox="0 0 58.84 50"><defs><style>.cls-1{fill:#ff3100;}</style></defs><title>Layer 2</title><g id="Layer_2" data-name="Layer 2"><g id="Layer_1-2" data-name="Layer 1"><g id="Layer_2-2" data-name="Layer 2"><g id="Layer_1-2-2" data-name="Layer 1-2"><g id="Layer_2-2-2" data-name="Layer 2-2"><g id="svg2"><g id="layer1"><path id="path3766-1" class="cls-1" d="M49.66,50a2.47,2.47,0,0,0,1.7-.71l6.78-6.78a2.38,2.38,0,0,0,0-3.37h0L44,25,58.14,10.87a2.4,2.4,0,0,0,0-3.38h0L51.36.7A2.41,2.41,0,0,0,48,.7L25.37,23.3a2.39,2.39,0,0,0,0,3.39L48,49.29A2.45,2.45,0,0,0,49.66,50ZM25,50a2.47,2.47,0,0,0,1.7-.71l6.77-6.78a2.39,2.39,0,0,0,0-3.38h0L19.35,25,33.47,10.87a2.39,2.39,0,0,0,0-3.39h0L26.7.7a2.42,2.42,0,0,0-3.4,0L.7,23.3a2.4,2.4,0,0,0,0,3.39h0l22.6,22.6A2.45,2.45,0,0,0,25,50Z"/></g></g></g></g></g></g></g></svg>